<svg width="206" height="51" viewBox="0 0 206 51" fill="none" xmlns="http://www.w3.org/2000/svg">
<path fill-rule="evenodd" clip-rule="evenodd" d="M40.0771 28.0531V44.7913L48.9943 39.6603V22.9222L40.0771 28.0531Z" fill="#181717"/>
<path opacity="0.5" fill-rule="evenodd" clip-rule="evenodd" d="M22.3378 10.4132L9.58126 17.7734L0.664062 12.6425L22.3378 0.151367L37.589 8.96241L28.7072 14.0933L22.3378 10.4132Z" fill="#181717"/>
<path opacity="0.5" fill-rule="evenodd" clip-rule="evenodd" d="M25.6055 36.3956L40.0764 28.0531L48.9759 22.9045L40.0764 17.7736L25.6055 26.1515V36.3956Z" fill="#181717"/>
<path fill-rule="evenodd" clip-rule="evenodd" d="M0.664062 12.6426V37.6603L22.3378 50.1515V39.8896L9.58126 32.5294V17.7736L0.664062 12.6426Z" fill="#181717"/>
<g clip-path="url(#clip0_3_776)">
<path d="M83.2886 35.966C81.7076 36.586 79.7856 36.772 77.7396 36.772C77.4296 36.772 77.1196 36.772 76.8096 36.741C70.0826 36.431 65.1846 32.401 65.1846 25.271C65.1846 18.079 70.4236 13.677 77.4296 13.677C79.5686 13.677 81.6456 14.08 83.1956 14.824L82.9166 20.125C81.6456 19.536 79.8786 19.102 77.9566 19.102C73.2136 19.102 70.3306 21.675 70.3306 25.581C70.3306 29.301 72.5626 31.657 76.3756 32.091C77.0576 32.153 77.8016 32.153 78.4836 32.122V26.108H83.2886V35.966ZM86.4835 36.4V19.567H91.1955V21.799H91.3195C92.1875 20.001 94.2335 19.164 96.9615 19.164L96.6515 24.651C92.6835 24.496 91.2885 26.077 91.2885 29.983V36.4H86.4835ZM116.242 42.29V19.567H120.954V21.582H121.078C122.039 20.094 123.93 19.164 126.224 19.164C130.781 19.164 134.191 22.419 134.191 27.999C134.191 33.579 130.502 36.803 126.193 36.803C124.023 36.803 122.101 35.842 121.14 34.075H121.047V42.29H116.242ZM125.17 32.37C127.402 32.37 129.138 30.634 129.138 28.216C129.138 25.798 127.402 24.093 125.17 24.093C122.907 24.093 121.14 25.705 121.14 28.216C121.14 30.696 122.907 32.37 125.17 32.37ZM170.367 36.059C168.879 36.586 167.205 36.803 165.376 36.803C159.3 36.803 155.425 33.703 155.425 27.906C155.425 22.884 158.711 19.164 163.764 19.164C168.91 19.164 171.483 23.194 171.483 27.751C171.483 28.433 171.452 29.177 171.328 29.735H160.788C161.408 31.874 163.33 32.835 166.244 32.835C167.67 32.835 168.848 32.649 169.964 32.246L170.367 36.059ZM163.826 23.628C162.276 23.628 160.881 24.527 160.54 26.79H166.957C166.864 25.023 165.624 23.628 163.826 23.628ZM174.125 36.4V19.567H178.837V21.799H178.961C179.829 20.001 181.875 19.164 184.603 19.164L184.293 24.651C180.325 24.496 178.93 26.077 178.93 29.983V36.4H174.125Z" fill="#1D1F17"/>
<path d="M108.066 25.705C108.066 24.713 107.074 24.093 104.997 24.093C102.982 24.093 101.091 24.682 99.6028 25.364L99.2618 20.559C100.719 19.784 102.92 19.164 105.493 19.164C110.763 19.164 113.026 21.613 113.026 26.139V36.4H108.128V34.354C106.888 35.842 105.462 36.803 102.982 36.803C100.192 36.803 98.1768 35.346 98.1768 32.525C98.1768 28.929 101.06 27.875 104.656 27.286C106.02 27.038 106.764 26.852 107.415 26.604C107.942 26.387 108.066 26.139 108.066 25.705ZM108.128 29.084C107.632 29.332 106.826 29.642 105.803 29.859C104.191 30.231 103.199 30.634 103.199 32.029C103.199 33.145 104.129 33.672 105.307 33.672C106.671 33.672 107.663 32.835 108.128 31.812V29.084ZM148.143 27.844C148.143 25.55 147.182 24 144.919 24C142.687 24 141.664 25.519 141.664 27.875V36.4H136.859V12.84H141.571V21.52H141.695C142.687 20.063 144.206 19.164 146.593 19.164C150.778 19.164 152.917 21.954 152.917 26.046V36.4H148.143V27.844ZM185.939 36.4V32.773L193.472 24.155H186.28V19.567H199.331V23.876L191.798 32.215H199.486V36.4H185.939Z" fill="#181717"/>
</g>
<defs>
<clipPath id="clip0_3_776">
<rect width="141" height="50" fill="white" transform="translate(65)"/>
</clipPath>
</defs>
</svg>
